HIERARCHY
ROOT Hips
{
	OFFSET -14.64140 90.27770 -84.91600
	CHANNELS 6 Xposition Yposition Zposition Zrotation Xrotation Yrotation
	JOINT Spine
	{
		OFFSET 0.00000 13.20850 -1.60436
		CHANNELS 3 Zrotation Xrotation Yrotation
		JOINT Spine1
		{
			OFFSET 0.00000 8.61716 0.00000
			CHANNELS 3 Zrotation Xrotation Yrotation
			JOINT Spine2
			{
				OFFSET 0.00000 8.61717 0.00000
				CHANNELS 3 Zrotation Xrotation Yrotation
				JOINT Spine3
				{
					OFFSET 0.00000 8.61717 0.00000
					CHANNELS 3 Zrotation Xrotation Yrotation
					JOINT Neck
					{
						OFFSET 0.00000 11.07920 1.10792
						CHANNELS 3 Zrotation Xrotation Yrotation
						JOINT Neck1
						{
							OFFSET 0.00000 7.08032 0.00000
							CHANNELS 3 Zrotation Xrotation Yrotation
							JOINT Head
							{
								OFFSET 0.00000 7.08031 0.00000
								CHANNELS 3 Zrotation Xrotation Yrotation
								End site
								{
									OFFSET 0.00000 0.00000 0.00000
								}
							}
						}
					}
					JOINT RightShoulder
					{
						OFFSET -0.01000 7.91373 5.19711
						CHANNELS 3 Zrotation Xrotation Yrotation
						JOINT RightArm
						{
							OFFSET -18.41580 0.00000 0.00000
							CHANNELS 3 Zrotation Xrotation Yrotation
							JOINT RightForeArm
							{
								OFFSET -29.11090 0.00000 0.00000
								CHANNELS 3 Zrotation Xrotation Yrotation
								JOINT RightHand
								{
									OFFSET -24.65040 0.00000 0.00000
									CHANNELS 3 Zrotation Xrotation Yrotation
									JOINT RightHandThumb1
									{
										OFFSET -5.35114 -0.85590 3.97906
										CHANNELS 3 Zrotation Xrotation Yrotation
										JOINT RightHandThumb2
										{
											OFFSET -4.52789 0.00000 0.00000
											CHANNELS 3 Zrotation Xrotation Yrotation
											JOINT RightHandThumb3
											{
												OFFSET -2.46976 0.00000 0.00000
												CHANNELS 3 Zrotation Xrotation Yrotation
												End site
												{
													OFFSET 0.00000 0.00000 0.00000
												}
											}
										}
									}
									JOINT RightHandIndex1
									{
										OFFSET -14.26970 0.00000 2.88139
										CHANNELS 3 Zrotation Xrotation Yrotation
										JOINT RightHandIndex2
										{
											OFFSET -5.48836 0.00000 0.00000
											CHANNELS 3 Zrotation Xrotation Yrotation
											JOINT RightHandIndex3
											{
												OFFSET -3.01859 0.00000 0.00000
												CHANNELS 3 Zrotation Xrotation Yrotation
												End site
												{
													OFFSET 0.00000 0.00000 0.00000
												}
											}
										}
									}
									JOINT RightHandMiddle1
									{
										OFFSET -14.26970 0.00000 -0.09147
										CHANNELS 3 Zrotation Xrotation Yrotation
										JOINT RightHandMiddle2
										{
											OFFSET -6.17441 0.00000 0.00000
											CHANNELS 3 Zrotation Xrotation Yrotation
											JOINT RightHandMiddle3
											{
												OFFSET -3.56743 0.00000 0.00000
												CHANNELS 3 Zrotation Xrotation Yrotation
												End site
												{
													OFFSET 0.00000 0.00000 0.00000
												}
											}
										}
									}
									JOINT RightHandRing1
									{
										OFFSET -12.69180 0.00000 -3.06433
										CHANNELS 3 Zrotation Xrotation Yrotation
										JOINT RightHandRing2
										{
											OFFSET -5.62556 0.00000 0.00000
											CHANNELS 3 Zrotation Xrotation Yrotation
											JOINT RightHandRing3
											{
												OFFSET -3.56744 0.00000 0.00000
												CHANNELS 3 Zrotation Xrotation Yrotation
												End site
												{
													OFFSET 0.00000 0.00000 0.00000
												}
											}
										}
									}
									JOINT RightHandPinky1
									{
										OFFSET -11.11390 0.00000 -6.03719
										CHANNELS 3 Zrotation Xrotation Yrotation
										JOINT RightHandPinky2
										{
											OFFSET -4.52789 0.00000 0.00000
											CHANNELS 3 Zrotation Xrotation Yrotation
											JOINT RightHandPinky3
											{
												OFFSET -2.46976 0.00000 0.00000
												CHANNELS 3 Zrotation Xrotation Yrotation
												End site
												{
													OFFSET 0.00000 0.00000 0.00000
												}
											}
										}
									}
								}
							}
						}
					}
					JOINT LeftShoulder
					{
						OFFSET 0.01000 7.91373 5.19711
						CHANNELS 3 Zrotation Xrotation Yrotation
						JOINT LeftArm
						{
							OFFSET 18.41580 0.00000 0.00000
							CHANNELS 3 Zrotation Xrotation Yrotation
							JOINT LeftForeArm
							{
								OFFSET 29.11090 0.00000 0.00000
								CHANNELS 3 Zrotation Xrotation Yrotation
								JOINT LeftHand
								{
									OFFSET 24.65040 0.00000 0.00000
									CHANNELS 3 Zrotation Xrotation Yrotation
									JOINT LeftHandThumb1
									{
										OFFSET 5.35114 -0.85590 3.97906
										CHANNELS 3 Zrotation Xrotation Yrotation
										JOINT LeftHandThumb2
										{
											OFFSET 4.52789 0.00000 0.00000
											CHANNELS 3 Zrotation Xrotation Yrotation
											JOINT LeftHandThumb3
											{
												OFFSET 2.46977 0.00000 0.00000
												CHANNELS 3 Zrotation Xrotation Yrotation
												End site
												{
													OFFSET 0.00000 0.00000 0.00000
												}
											}
										}
									}
									JOINT LeftHandIndex1
									{
										OFFSET 14.26970 0.00000 2.88139
										CHANNELS 3 Zrotation Xrotation Yrotation
										JOINT LeftHandIndex2
										{
											OFFSET 5.48836 0.00000 0.00000
											CHANNELS 3 Zrotation Xrotation Yrotation
											JOINT LeftHandIndex3
											{
												OFFSET 3.01859 0.00000 0.00000
												CHANNELS 3 Zrotation Xrotation Yrotation
												End site
												{
													OFFSET 0.00000 0.00000 0.00000
												}
											}
										}
									}
									JOINT LeftHandMiddle1
									{
										OFFSET 14.26970 0.00000 -0.09147
										CHANNELS 3 Zrotation Xrotation Yrotation
										JOINT LeftHandMiddle2
										{
											OFFSET 6.17440 0.00000 0.00000
											CHANNELS 3 Zrotation Xrotation Yrotation
											JOINT LeftHandMiddle3
											{
												OFFSET 3.56744 0.00000 0.00000
												CHANNELS 3 Zrotation Xrotation Yrotation
												End site
												{
													OFFSET 0.00000 0.00000 0.00000
												}
											}
										}
									}
									JOINT LeftHandRing1
									{
										OFFSET 12.69180 0.00000 -3.06433
										CHANNELS 3 Zrotation Xrotation Yrotation
										JOINT LeftHandRing2
										{
											OFFSET 5.62556 0.00000 0.00000
											CHANNELS 3 Zrotation Xrotation Yrotation
											JOINT LeftHandRing3
											{
												OFFSET 3.56744 0.00000 0.00000
												CHANNELS 3 Zrotation Xrotation Yrotation
												End site
												{
													OFFSET 0.00000 0.00000 0.00000
												}
											}
										}
									}
									JOINT LeftHandPinky1
									{
										OFFSET 11.11390 0.00000 -6.03719
										CHANNELS 3 Zrotation Xrotation Yrotation
										JOINT LeftHandPinky2
										{
											OFFSET 4.52789 0.00000 0.00000
											CHANNELS 3 Zrotation Xrotation Yrotation
											JOINT LeftHandPinky3
											{
												OFFSET 2.46976 0.00000 0.00000
												CHANNELS 3 Zrotation Xrotation Yrotation
												End site
												{
													OFFSET 0.00000 0.00000 0.00000
												}
											}
										}
									}
								}
							}
						}
					}
					JOINT pCube4
					{
						OFFSET 0.00000 10.91090 1.10792
						CHANNELS 3 Zrotation Xrotation Yrotation
						End site
						{
							OFFSET 0.00000 0.00000 0.00000
						}
					}
				}
			}
		}
	}
	JOINT RightUpLeg
	{
		OFFSET -9.98441 0.00000 0.00000
		CHANNELS 3 Zrotation Xrotation Yrotation
		JOINT RightLeg
		{
			OFFSET 0.00000 -42.11790 0.00000
			CHANNELS 3 Zrotation Xrotation Yrotation
			JOINT RightFoot
			{
				OFFSET 0.00000 -45.00020 -0.00001
				CHANNELS 3 Zrotation Xrotation Yrotation
				JOINT RightForeFoot
				{
					OFFSET 0.00000 -3.74820 0.00000
					CHANNELS 3 Zrotation Xrotation Yrotation
					JOINT RightToeBase
					{
						OFFSET 0.00000 0.06325 14.43120
						CHANNELS 3 Zrotation Xrotation Yrotation
						End site
						{
							OFFSET 0.00000 0.00000 0.00000
						}
					}
				}
			}
		}
	}
	JOINT LeftUpLeg
	{
		OFFSET 9.98441 0.00000 0.00000
		CHANNELS 3 Zrotation Xrotation Yrotation
		JOINT LeftLeg
		{
			OFFSET 0.00000 -42.11800 0.00000
			CHANNELS 3 Zrotation Xrotation Yrotation
			JOINT LeftFoot
			{
				OFFSET 0.00000 -45.00070 0.00000
				CHANNELS 3 Zrotation Xrotation Yrotation
				JOINT LeftForeFoot
				{
					OFFSET 0.00000 -3.74824 0.00000
					CHANNELS 3 Zrotation Xrotation Yrotation
					JOINT LeftToeBase
					{
						OFFSET 0.00000 0.06325 14.43110
						CHANNELS 3 Zrotation Xrotation Yrotation
						End site
						{
							OFFSET 0.00000 0.00000 0.00000
						}
					}
				}
			}
		}
	}
}
MOTION
Frames: 4
Frame Time: 0.050000
0.0179719445886513 -0.047043985537490625 -0.03543317113639284 -0.0188288909995884 0.018209307331489538 -0.006123809529596914 -0.6663076932513476 2.5856144740911517 -1.2629034627769296 -0.9735182586112866 3.7067371074940714 0.407059842665494 -1.1590266686826756 -1.1570867993886251 -0.4554607175260555 0.4510044969144476 0.1875801909386411 -0.6793774281287094 0.9222061448071657 11.30030389268167 -3.345945613809344 0.1731151494242167 -1.670427652127463 -9.2474321723925 1.3478556486683633 -18.28148848895398 -0.7931125442987091 -6.764496024042505 2.461236067443477 -14.901103994951516 78.75078044937564 -1.5479682624696238 15.209317854170948 35.04786031709125 -1.0036982983831713 97.67676234226737 3.42367485007623 -0.02123687322592061 -1.7121613768138022 4.499852790148746 -0.17449693954902984 -1.5510526049092292 -0.0013307678066035 0.0013526718955810342 -56.20303314370606 0.008185504552532537 -0.011001351405602218 -56.21827682896691 -38.8058031940014 0.047321540675028514 0.01843153316199804 0.028905906803812057 0.019726488424420235 0.03812646168970305 -0.008069459792289532 0.036862783029126295 0.012676283048634995 -36.70881558879639 -0.02572279175465076 0.017304256318621834 -0.023783290890030062 0.01015892049879221 -0.041045365851193935 0.018747749262243877 0.017970821165058562 -0.01504473655138273 -19.769501259997263 -0.04367445186356517 0.021724373045026352 0.0014502780789673701 0.0181383086280795 -0.025464422909598102 -0.019938551575656858 -0.02495133452309196 0.003280302858989203 24.054083140106 -0.03174032461497388 0.022850544674686495 28.899104918270726 0.02660276420149544 0.0339069840902125 28.82415553596371 -0.013468023299034858 0.00762113179368808 5.310322279126169 1.4081539107684513 11.91952806709257 -71.42237629017674 28.14436802332527 -7.331120802655608 -18.144486900024116 -3.375311112769485 -85.07639617433954 -9.22378735190271 -4.590460374219066 3.56148682001467 -0.47161740976850663 0.08110917916390487 -8.118911038226484 -0.0423595055858893 -0.01490064915565644 44.577611171981005 -0.019497171292430282 -0.008057399972852505 44.61599726144127 12.416257914511728 0.012166552528919706 -0.03413164562635263 -0.006919955610363594 0.04124225869135394 -0.035444526842316144 0.03594857381215893 -0.03891123975298737 0.026083133103033066 11.119373437910491 -0.011909164451046573 -0.0198499022674077 0.009251395069186541 0.016359464165777354 0.00576836483850089 -0.024939129234546806 0.011290025438554617 -0.019949532198765153 4.777282649857174 0.041486409357679666 0.0003957469712016983 -0.01550040570327566 -0.04534349109624879 0.017079043771591022 -0.0008310708630458361 -0.01384863028605716 0.03906299691066932 -5.612286515372281 -0.009311207795749185 0.02254062196735515 -6.721722749883968 0.02170917684056813 0.023205748752236462 -6.699132855330637 -0.005009085773092601 -0.04873044846852932 -0.026996212909176656 -0.019717063845369972 -0.029159502796812432 7.999735987386152 3.46615368115382 -19.20312795111326 0.04342613273458769 10.40430824111314 -0.009396649852383733 -5.601040716779088 -15.667074299991897 3.1903997548785297 0.00195829505784917 -0.0025931152566391804 0.016988872474047546 0.04574531556646163 4.659683908452074 -0.043549758080522964 12.452127808559148 -8.268883329517204 6.885187948623272 0.03370426391989177 46.33735998233982 0.03556513262765512 -4.352749604093199 -14.708141256685073 -3.860743011338365 -0.034005872872689816 -0.03150390913303681 -0.026919670724132636 -0.007716004525535463 -10.716204358698269 0.021643689008857638 
0.04451885011515086 -0.03860677152209695 0.0028418462074421675 -0.016873834847673044 -0.03383792318557694 0.01071697684187961 -0.9496680525249055 2.5079116744778167 -1.2131888024463793 -0.9208602631110515 3.6638353221211806 0.43720249931690347 -1.1782630563573666 -1.2251901012183486 -0.42633086428953515 0.39031240622598806 0.15226849574702217 -0.6719931337097984 0.9385108859690616 11.190719352369513 -3.220693473071948 0.1645945495846326 -1.6787323114177115 -9.106081793845732 1.2930270176498477 -18.20583638623096 -0.8133906724592583 -6.662700461681483 2.44626413213482 -14.849230401194108 77.82501291997893 -1.1649717727100335 15.600815673033727 30.581666013733418 -0.7518118417104657 99.60692569243948 3.0198372898898076 0.008441271984959857 -1.3754873369783016 4.500981154416102 -0.1437088620042339 -1.6210163576606398 -0.03638306495946815 0.016109928534143853 -56.19142823768207 0.042968718421916414 0.04508076517345533 -56.236246821211225 -38.80699539870571 0.0495142941765214 -0.040729731049423956 -0.004135750238304821 -0.010632736129877878 0.037235410646637865 -0.04644684327070838 -0.029780196170768134 -0.005630857609667838 -36.6885739842819 -0.040715069856784206 0.018271455377230232 0.011677122430541285 -0.00011436019355612047 -0.010671807254147642 -0.017670816862724134 -0.03085305479505004 -0.023643954730763396 -19.711728060179407 0.042334709635284955 -0.021107823205442664 0.03786225537160419 0.02137982540034386 0.004421184256939241 -0.02687226210849803 0.024782353958093903 -0.005100408516478976 24.088744673668234 0.0020452201181987827 0.01153968511149103 28.841407030164923 0.02566226640588693 -0.024808042983315362 28.914902031825154 -0.047499651001490804 0.008892401252745494 5.17076588720912 1.3386098563550621 11.854698278352314 -71.10762103512508 29.140170864099595 -7.523632325920739 -13.213876899235606 -3.621166874251574 -85.44146289334354 -9.292818895098058 -4.402420393000799 3.353898941302774 -0.4386574443911819 0.09124069213032154 -8.080149689302178 -0.036192455819423 -0.014774545495403187 44.61177656597983 0.014716544016578287 0.001896447904646994 44.58343135110097 12.442504264443283 0.02957256328016549 0.016983236880750353 0.04217224251451033 -0.04690649039343945 0.03404176382016768 0.005670594183106464 -0.00481480442985603 0.0049200493852619475 11.08977718557801 -0.013240080383378438 0.03686712413053963 -0.0021878864175192327 -0.0010118323771923514 0.02218953228241698 0.018556284849812338 0.012350520387094189 -0.039032571837081295 4.796172263364401 0.021870353850364004 0.010915199279469321 0.01090178295526985 -0.023881928928394667 -0.011015677353780827 -0.03129911699749794 0.004892100131956975 0.013628976304581182 -5.584557019846831 -0.04507798064472884 -0.03216635291360153 -6.738464210137809 0.01213960190630291 -0.033961829756219274 -6.712113312790308 0.04047141999226568 0.004306852432702045 -0.028559365232084778 -0.04646942862471662 0.027717362661220747 8.06423693554248 3.529150313389117 -19.237722734498753 -0.0013717850608734468 10.404865222505522 -0.01133906633925576 -5.600677067664592 -15.62123840193254 3.235805825587892 0.02095062250528631 -0.008654717985806443 -0.02781815717091946 -0.02225704629189237 4.665924087842963 -0.01278523963319897 12.410951525276014 -8.281856796154708 6.907658159949135 -0.015858166715676966 46.384509257568496 0.011040364670074947 -4.349881426031238 -14.75817413443505 -3.8504892237898933 -0.049041593981954554 -0.04507566149334739 0.011944403659904809 0.04014732176184266 -10.765247411127383 0.03364334807149086 
-0.04505987016992011 0.030248650410256563 0.02575483120401898 -0.003541086168086259 -0.00399400762787982 0.00939608094622927 -1.0915088856124464 2.309432254072646 -1.1919458702708612 -0.8979668712677564 3.657770394790928 0.43925893238271757 -1.156064993500675 -1.1850195616552819 -0.40584780229517853 0.3056032939881628 0.05635078804073204 -0.7067248312925568 0.8760963151601029 11.130275098702478 -3.189096039315321 0.22235898966958473 -1.6186524200984347 -8.900971050985856 1.2577175337914757 -18.084878559162405 -0.7709555539352764 -6.645335048799182 2.474469989806825 -14.75819657082355 77.1280069566928 -0.5412167001435869 15.95002618202022 27.26308301758072 -0.8617242468824233 101.06079893806194 2.8042575883521184 0.01015706350779734 -1.0609598661143365 4.5488649239653345 -0.14750818815000027 -1.5699075756000853 -0.014573075017849626 0.012335948431239165 -56.27865383087503 -0.025023079851917974 0.021665067827088224 -56.22947392422439 -38.74098950033863 0.014701383692015048 0.009450504586457954 0.01703145305491959 0.008718878347752432 0.024139252301409776 -0.020126109132889303 -0.02000738521488985 0.042170143142779726 -36.726024487098286 0.045748745681282135 -0.02287239868442217 0.046612739921747644 0.038931841653577756 -0.013253252017033885 -0.04646940499123933 0.03460610329017415 -0.02751850575568485 -19.75797712211285 0.024995178861510408 0.009209156396760631 0.023795132484663126 -0.008874498699435119 0.04895528982199892 0.041059044631787535 -0.016785244312834593 0.049804629913894005 24.05142253310133 0.034393824007722874 -0.027735986311874322 28.8777640800091 -0.049804030239498 0.012297562395718015 28.915081654152477 0.04586452892054187 -0.035969225355036605 5.146718537412259 1.400146310518552 11.89496184523811 -70.9270567177107 29.902862478625202 -7.859840775241275 -10.164868498906538 -3.859702833436049 -86.24690283917288 -9.473667495372705 -4.210209029657102 3.2389373749855097 -0.5001288405844158 0.10883451140826045 -8.17185031683265 -0.009037833434821141 0.0007102390379502308 44.5710288739652 0.02708446569223448 -0.009572237607789247 44.558572690415076 12.465229993681083 0.022419925060161862 -0.029976887176559178 0.0321449475790707 0.01708379907607877 0.019212180096416096 -0.03863752967530345 0.005290499168561583 -0.04397090702825971 11.141487406016866 -0.013660930563096018 -0.039937297991593304 0.009029315020976723 -0.04806520526418001 -0.01972127200546341 0.005679116282285175 -0.017799420524589965 -0.03971819313904555 4.806382802457252 -0.04267708186441882 0.02049251232599759 -0.02191074710516503 -0.000574046213678611 -0.014318108007851393 -0.038833433095008515 -0.03846140308693756 0.013965247614677455 -5.5818736918901815 0.04307807647792567 0.04786362074855163 -6.687778032285992 -0.02618427821580359 0.037449372127977214 -6.706153343099097 -0.02034723704894893 0.044612301884081426 0.009321505086621624 0.00842154683089112 -0.0005505200080779489 8.087682050848015 3.5032708877527825 -19.18580983533783 0.0437921645896286 10.410939581245366 0.012453348124336811 -5.624970769051217 -15.664984382727324 3.145216581844503 -0.012369202815151113 0.02042081557385775 -0.009925661988290226 -0.011772750052159333 4.701475410761213 0.014381832556271746 12.490203870692435 -8.240536165382318 6.871795943432456 0.01563799986292172 46.41836697095969 -0.011642356505771384 -4.333253179683034 -14.72086298481138 -3.8418223791489194 0.030461196746844558 -0.00955826637658554 0.009009900537161426 -0.032544180318536994 -10.732031887933271 0.03987280706399392 
-0.03129725323494785 -0.01908016318135927 0.030112919620183906 0.02812903658656099 0.03853329639088503 -0.006984864819791138 -1.1754312509197056 2.146569316557676 -1.2109696963126082 -0.9043963673683071 3.6367004917180425 0.4035686493028547 -1.1773005624354158 -1.2506481467837438 -0.38908315094456797 0.2715921246462607 0.05291840556775348 -0.7147415270195926 0.9090885513603895 11.24558214754228 -3.1057523873056123 0.1658527316390612 -1.5343386520350835 -8.691261577228692 1.2518980705291791 -17.99905154617822 -0.8085898437907559 -6.7030008844450055 2.5442011106970783 -14.672371235798867 76.92683382089156 -0.23571385645703985 16.829751481685978 25.198176406787105 -0.7610229719247501 101.93080823654847 2.6450205523414922 0.050187893923909266 -0.8691703799646748 4.527196440833141 -0.1481567163370137 -1.6066527422009727 -0.028407597207014777 -0.03989143229289179 -56.25515946722549 0.0062012531792786495 -0.020731027759045867 -56.225042695639395 -38.77286116187883 -0.019840893095822737 -0.011572905011130334 0.03640365622276832 0.03921272969993341 -0.02117716621660066 0.011208740406764997 0.04606723708349265 -0.034903225245593084 -36.7354140058587 -0.04415488886205892 -0.045708908549106045 -0.004119510668972765 -0.04115252662356187 -0.030290923950518616 -0.011692336522546075 -0.011553278093521442 0.0024407426667765065 -19.74310875390504 0.0008100597313104375 0.016447415738126095 -0.03623929156467071 -0.035361372507698864 0.049694886283598645 0.03832157484226359 -0.015325292517725821 0.018010047283738537 24.039420966562197 0.026885322046454645 -0.02264935565315785 28.90536383464004 -0.017687987990901204 -0.032650250373366364 28.85603201316631 0.04187352823343343 -0.001773560506145338 5.217119546138599 1.3498274964245531 11.850296108842066 -70.80148509158431 30.325357769289276 -8.15784905724797 -8.638653894600907 -3.842840765766676 -87.50077594228352 -9.400870642110581 -4.110107684927959 3.098845178006834 -0.4728114643671892 0.025572577020403844 -8.170015400217379 -0.03965423343450134 0.03179360065892255 44.59461175779963 -0.0036644436386423563 0.02246915663583072 44.52102333116068 12.42034441541608 0.004648605671001407 0.012079184168761291 0.0350617182664598 0.015133315779834278 -0.029180959553272205 0.0016852190557696703 0.0007338253765120845 -0.023784787183221228 11.1244173388329 -0.008619195854696542 -0.044263079347911786 0.0480640866895056 -0.049647922007745746 -0.0215150843401192 -0.015385855216613072 0.04822071181084754 -0.025875322506698297 4.798421702323737 0.02282849365425873 0.04957720311603868 -0.03154808907779866 -0.026140288002202933 -0.021938363247218925 0.0003140793753746356 0.0047726212908946065 -0.011598702766905864 -5.585408810493195 -0.037742618494374 -0.03771186088319697 -6.697419153682354 0.018551210510989524 -0.01759682127366628 -6.6937169963313785 -0.040820029858197854 0.04233649773908156 -0.0029822797445570527 0.028942554950361497 0.0018601326775013276 8.04396321155535 3.50949094797852 -19.204225992540202 0.033135369432418224 10.42819526246303 0.008690223580102532 -5.6185710139649165 -15.694442070848089 3.225088232459152 -0.0142301992997632 -0.017010203789099575 0.021960425569664207 -0.0428458366741298 4.673379246371208 0.03204840340214105 12.502679642925097 -8.25142817279726 6.884559106935188 -0.012666000897028839 46.42166510174838 -0.025145977415735175 -4.353875325971211 -14.77739596047768 -3.8547563704969883 -0.024525176759571513 -0.028858276828865416 0.049506798068524184 -0.004127243728677809 -10.723292896446369 0.015463019056861921 
